<?xml version="1.0" standalone="no"?>
<!DOCTYPE svg PUBLIC "-//W3C//DTD SVG 20010904//EN"
 "http://www.w3.org/TR/2001/REC-SVG-20010904/DTD/svg10.dtd">
<svg version="1.0" xmlns="http://www.w3.org/2000/svg"
 width="2000.000000pt" height="2000.000000pt" viewBox="0 0 2000.000000 2000.000000"
 preserveAspectRatio="xMidYMid meet">
<metadata>
Created by potrace 1.11, written by Peter Selinger 2001-2013
</metadata>
<g transform="translate(0.000000,2000.000000) scale(0.100000,-0.100000)"
fill="#000000" stroke="none">
<path d="M9719 18176 c-2 -2 -62 -6 -134 -9 -216 -9 -308 -17 -485 -38 -47 -6
-105 -12 -130 -15 -25 -2 -63 -7 -85 -10 -61 -9 -86 -12 -135 -19 -25 -4 -67
-11 -95 -16 -27 -5 -66 -12 -85 -15 -19 -2 -55 -9 -80 -14 -25 -5 -56 -12 -70
-14 -14 -3 -38 -8 -55 -11 -52 -9 -126 -26 -255 -57 -69 -16 -132 -31 -141
-33 -8 -2 -75 -20 -149 -40 -74 -20 -141 -38 -149 -40 -19 -4 -410 -132 -431
-142 -8 -3 -19 -7 -25 -8 -38 -9 -416 -162 -533 -216 -35 -16 -67 -29 -72 -29
-6 0 -10 -5 -10 -12 0 -6 -3 -9 -6 -6 -11 12 -445 -208 -688 -349 -60 -35
-112 -63 -116 -63 -5 0 -10 -3 -12 -7 -1 -5 -32 -26 -68 -47 -104 -63 -294
-188 -301 -198 -3 -6 -9 -9 -13 -9 -3 1 -30 -16 -59 -37 -28 -21 -74 -54 -102
-73 -59 -41 -37 -24 -215 -161 -123 -94 -286 -226 -326 -263 -6 -5 -35 -30
-65 -55 -29 -25 -78 -68 -109 -96 -144 -134 -174 -160 -196 -174 -13 -8 -24
-19 -24 -23 0 -5 -46 -55 -102 -112 -112 -111 -326 -341 -396 -425 -202 -243
-347 -426 -449 -570 -88 -124 -173 -250 -173 -255 0 -3 -8 -15 -18 -26 -11
-10 -25 -32 -33 -47 -8 -15 -16 -29 -19 -32 -3 -3 -10 -14 -17 -25 -7 -11 -57
-94 -111 -185 -120 -198 -192 -326 -192 -338 0 -5 -6 -15 -14 -21 -8 -7 -17
-24 -21 -39 -4 -15 -10 -29 -14 -32 -16 -10 -177 -350 -266 -560 -31 -74 -61
-144 -66 -155 -16 -36 -101 -260 -103 -270 -1 -5 -4 -14 -8 -20 -11 -19 -145
-438 -174 -545 -21 -79 -105 -411 -109 -429 -5 -26 -22 -109 -31 -151 -3 -14
-7 -36 -10 -50 -2 -14 -9 -47 -14 -75 -14 -72 -22 -116 -25 -145 -2 -14 -11
-68 -20 -120 -10 -52 -19 -115 -20 -140 -2 -25 -5 -45 -6 -45 -1 0 -2 -11 -3
-25 -2 -14 -6 -52 -10 -85 -12 -100 -17 -140 -31 -305 -28 -317 -28 -985 -1
-1295 3 -27 7 -84 11 -125 3 -41 8 -86 10 -100 2 -14 6 -47 9 -75 8 -78 18
-153 36 -280 16 -110 20 -135 36 -225 9 -47 18 -98 21 -115 2 -16 13 -66 23
-110 11 -44 21 -91 24 -105 2 -14 11 -54 20 -90 9 -36 18 -74 21 -85 2 -11 14
-56 25 -100 12 -44 23 -87 24 -95 2 -8 13 -48 25 -89 27 -89 33 -110 34 -133
1 -10 5 -18 9 -18 4 0 8 -6 8 -13 0 -47 215 -638 299 -820 17 -37 31 -69 31
-71 0 -2 14 -34 32 -72 17 -38 32 -71 33 -74 2 -12 158 -323 206 -410 28 -52
62 -115 75 -138 13 -24 54 -95 91 -158 37 -63 77 -130 88 -149 11 -19 28 -44
37 -55 10 -11 16 -20 13 -20 -7 0 48 -84 58 -88 4 -2 7 -7 7 -12 0 -12 188
-284 294 -425 96 -128 299 -379 371 -459 11 -13 52 -58 90 -101 199 -225 526
-546 725 -715 14 -12 39 -34 55 -48 17 -15 55 -47 85 -72 30 -25 57 -47 60
-50 3 -3 50 -41 105 -83 55 -43 111 -87 125 -97 14 -11 34 -27 45 -35 213
-164 724 -494 940 -607 28 -15 70 -38 95 -52 54 -30 385 -194 455 -226 28 -12
68 -30 90 -40 154 -69 461 -190 610 -242 17 -5 39 -14 50 -19 20 -8 266 -87
295 -94 8 -2 47 -13 85 -25 39 -12 81 -23 95 -26 14 -3 54 -13 90 -24 36 -10
108 -28 160 -40 52 -12 102 -25 110 -28 8 -3 18 -5 22 -4 3 1 30 -5 60 -12 29
-8 67 -17 83 -20 48 -8 87 -16 135 -26 40 -8 81 -15 145 -25 17 -3 53 -8 195
-30 14 -3 43 -7 65 -11 22 -3 54 -8 70 -9 28 -3 76 -8 185 -20 160 -17 162
-17 385 -31 161 -11 768 -12 930 -2 228 14 311 21 505 44 19 2 58 7 85 10 28
3 61 8 75 10 14 2 48 7 75 10 28 3 66 9 85 14 19 5 55 11 80 14 25 3 56 8 70
11 13 2 42 7 64 11 22 3 43 7 46 9 3 2 23 6 45 9 58 9 260 53 329 71 33 9 69
17 80 20 12 2 21 4 21 5 0 1 7 3 50 14 118 28 271 72 455 131 198 64 619 223
767 291 17 8 36 14 42 14 6 0 11 5 11 10 0 6 7 10 15 10 8 0 23 4 33 10 9 5
118 59 242 120 259 128 278 138 500 268 454 265 993 658 1324 966 17 15 62 56
99 89 177 161 460 453 642 667 95 110 102 119 160 190 20 25 44 54 53 65 20
24 150 191 174 226 65 90 98 135 105 144 4 6 26 37 48 70 22 33 42 62 45 65
11 10 100 150 189 295 50 83 96 157 101 165 6 8 20 35 33 60 12 25 30 54 40
64 9 11 17 24 17 29 0 5 16 35 35 68 19 32 31 59 27 59 -4 0 -2 4 4 8 5 4 48
84 93 177 46 94 88 177 92 185 5 8 13 24 18 35 5 11 17 38 26 60 10 22 17 43
17 48 -1 4 2 7 7 7 13 0 43 69 35 82 -4 6 -3 8 3 5 9 -6 23 23 28 58 1 6 7 21
12 35 18 43 103 262 124 320 12 30 25 63 30 72 5 10 9 25 9 33 0 8 4 23 10 33
5 9 17 40 26 67 46 143 86 272 90 290 2 11 8 31 13 45 10 24 79 286 87 325 11
55 13 66 18 73 3 5 8 24 11 43 3 19 12 62 20 95 23 100 70 348 80 424 3 25 8
52 10 60 3 14 9 52 21 150 3 19 7 49 9 65 2 17 6 55 9 85 5 53 13 121 21 190
3 19 7 78 11 130 3 52 8 113 9 135 2 22 6 146 9 275 3 129 8 281 11 338 3 56
2 108 -2 115 -11 18 -13 38 -2 31 5 -3 9 7 8 23 0 25 -1 26 -9 8 -6 -13 -9 14
-10 80 -1 55 -4 114 -5 130 -2 17 -6 75 -9 130 -4 55 -8 114 -11 130 -2 17 -7
62 -10 100 -4 39 -9 81 -10 95 -2 14 -6 44 -9 68 -4 23 -9 61 -12 85 -3 23 -7
60 -10 82 -2 22 -7 51 -10 65 -3 14 -12 66 -20 115 -20 132 -24 153 -41 230
-8 39 -17 81 -19 95 -3 14 -10 45 -15 70 -6 25 -13 56 -15 70 -3 14 -25 104
-50 200 -25 96 -47 180 -48 185 -23 104 -210 658 -271 800 -7 17 -34 82 -60
145 -205 493 -460 964 -772 1425 -94 138 -234 332 -300 415 -6 8 -40 51 -75
95 -35 44 -73 91 -84 105 -12 14 -52 61 -89 105 -163 193 -521 563 -730 754
-168 154 -568 478 -699 566 -16 11 -41 29 -56 40 -73 54 -368 250 -470 312
-489 298 -1000 543 -1515 726 -242 86 -702 224 -840 251 -11 3 -60 13 -110 25
-207 46 -480 97 -625 116 -25 3 -61 8 -80 10 -19 3 -53 7 -75 10 -22 2 -58 7
-80 9 -22 3 -67 8 -100 11 -33 3 -71 8 -85 10 -14 2 -72 7 -130 10 -58 4 -127
9 -155 11 -67 6 -751 15 -756 10z m7529 -4741 c-3 -3 -9 2 -12 12 -6 14 -5 15
5 6 7 -7 10 -15 7 -18z"/>
</g>
</svg>
